<svg
   width="136.58954mm"
   height="215.491mm"
   viewBox="0 0 483.97868 763.55078"
   id="svg2"
   version="1.1"
   xmlns="http://www.w3.org/2000/svg"><defs
     id="defs4" /><g
     id="layer1"
     transform="translate(-142.61822,-65.721763)"><path
       style="fill:#ffffff"
       d="m 325.44265,561.90547 c -0.32304,0 -0.51877,7.32841 -0.43473,16.28535 0.15142,16.16817 -1.00818,27.96166 -2.74961,27.96166 -0.49924,0 -1.61597,-3.42867 -2.4815,-7.61926 -4.02445,-19.48431 -15.55122,-34.62521 -32.71788,-42.97626 l -9.83267,-4.78329 -0.81742,21.23672 c -0.49491,12.86023 -2.0705,29.1659 -3.99455,41.33946 -1.74747,11.05649 -3.17714,21.57672 -3.17714,23.37828 0,4.28046 9.24599,19.98947 16.54091,28.10316 6.92404,7.7013 22.43317,18.34458 28.34798,19.45421 l 4.27445,0.80189 v 72.62495 c 0,39.94373 -0.46869,72.09953 -1.04147,71.45733 -0.57292,-0.64219 -12.81459,-26.8862 -27.20372,-58.32001 C 275.76605,739.41586 252.94351,689.63798 239.4384,660.23215 225.93343,630.82632 208.93747,593.76946 201.66955,577.88356 175.77319,521.27973 155.0926,476.28412 148.90234,463.07541 l -6.28412,-13.40877 41.32618,-89.83424 c 22.72932,-49.40884 44.52206,-96.74785 48.42825,-105.1978 17.04932,-36.88121 59.18256,-128.44316 71.52322,-155.431053 17.1344,-37.471261 15.53063,-34.57769 17.86936,-32.238892 1.43492,1.434875 2.02711,5.577954 2.43641,17.043291 0.62286,17.450384 1.5491,21.227024 7.48331,30.511144 3.86162,6.04155 7.60996,15.35348 7.60996,18.9052 0,0.71904 -2.35066,-1.25545 -5.22363,-4.38778 -2.87298,-3.13232 -7.15937,-6.32131 -9.52537,-7.08663 -3.92953,-1.27108 -4.52997,-1.12799 -6.93858,1.6533 -5.13607,5.93065 -15.68062,42.5473 -32.77819,113.82425 -14.1024,58.7907 -16.83628,75.58647 -13.58756,83.4764 0.95127,2.3103 6.46203,9.10976 12.24626,15.10994 10.25403,10.63693 14.07618,16.78433 15.88631,25.55109 l 0.88822,4.3018 -7.83638,-7.49418 c -4.30998,-4.12178 -9.69356,-8.45459 -11.9636,-9.62847 -5.92608,-3.06449 -15.8344,-3.83212 -21.09461,-1.63427 l -4.32061,1.80528 -5.82408,29.98477 c -10.09592,51.97816 -11.10921,64.58609 -5.88151,73.18223 4.87241,8.01205 20.00109,11.74883 36.95733,9.12846 13.03851,-2.01492 17.53636,-4.46514 18.98819,-10.34387 0.98602,-3.99272 0.72185,-5.56115 -1.70813,-10.1417 -2.71565,-5.11919 -9.19407,-11.91579 -16.05098,-16.8396 -3.06583,-2.20148 -3.05665,-2.20489 4.06797,-1.51699 18.79678,1.81487 38.22299,20.28243 45.69608,43.44099 1.15934,3.59277 2.38685,6.2534 2.72771,5.9125 1.49798,-1.49801 -2.39065,-21.35043 -5.7466,-29.33788 -2.02422,-4.81781 -3.52128,-8.91884 -3.32672,-9.11339 0.65079,-0.65081 9.99274,6.00828 14.73314,10.50207 2.5776,2.44346 14.64017,21.35988 16.07876,23.67656 7.13387,-10.78542 37.26719,-26.21362 57.00929,1.6605 l 1.09982,3.68725 1.59879,-4.91634 c 3.29486,-10.13188 8.57881,-18.75154 15.13549,-24.68999 7.56119,-6.84825 15.25912,-11.77305 14.05665,-8.99283 -5.55991,12.85533 -8.11208,21.42168 -8.75369,29.38103 -0.80405,9.9778 -0.27401,9.63355 4.23132,-2.74766 4.79559,-13.17885 14.85192,-25.48914 27.07891,-33.14831 4.2544,-2.66504 15.43873,-5.90809 20.10033,-5.8284 l 3.77155,0.0644 -3.07278,2.08643 c -6.26642,4.25504 -13.79733,11.94615 -16.08165,16.42395 -4.97166,9.74527 -2.25745,15.86287 8.45714,19.0613 8.42135,2.51388 28.36463,2.89262 34.75298,0.65997 6.22801,-2.17664 11.78661,-8.44242 13.62886,-15.36302 1.90347,-7.15023 0.37469,-18.98822 -8.4283,-65.26715 l -5.81937,-30.59329 -3.99717,-1.67016 c -10.3049,-4.30563 -20.94162,-0.81099 -33.19089,10.9046 l -8.05597,7.70513 0.88821,-4.30179 c 1.80882,-8.76054 5.56634,-14.75901 16.30847,-26.03507 13.44178,-14.10981 14.49178,-16.67695 12.56995,-30.7314 -2.00141,-14.63762 -8.75344,-45.61115 -18.4373,-84.57807 -15.59501,-62.75292 -24.10826,-91.41112 -28.67377,-96.52563 -2.42644,-2.71813 -3.03043,-2.84518 -7.55358,-1.58893 -3.54501,0.98455 -6.06138,2.88599 -9.02115,6.81666 -2.25771,2.99817 -4.36806,5.18796 -4.68992,4.86617 -1.32531,-1.32538 2.59465,-11.68606 7.83166,-20.69918 l 5.59203,-9.62417 1.20129,-17.518363 c 1.12053,-16.341579 2.48295,-22.066892 4.6928,-19.721355 0.50475,0.535644 5.32944,10.652935 10.72181,22.482867 5.39223,11.829921 21.14744,46.121351 35.01164,76.203181 41.92243,90.96146 125.15469,271.83172 128.10731,278.38741 l 2.76783,6.14541 -39.1857,85.42131 c -21.55212,46.98171 -44.39798,96.7596 -50.76863,110.61751 -51.7121,112.48818 -83.46388,181.67763 -84.32404,183.74798 -0.56165,1.35199 -1.05629,-30.52726 -1.09917,-70.84279 l -0.0774,-73.30095 4.15477,-0.77943 c 5.87206,-1.10161 18.55332,-9.62778 26.54164,-17.84515 3.73484,-3.84189 9.60678,-11.74749 13.04874,-17.56799 l 6.25817,-10.58273 -1.63695,-10.24167 c -4.74183,-29.66666 -5.65457,-37.76917 -6.39005,-56.72573 l -0.80195,-20.67334 -9.9213,4.96935 c -17.35924,8.6949 -28.6246,23.50377 -32.62938,42.89252 -0.86553,4.19059 -1.93782,7.61926 -2.38304,7.61926 -2.03484,0 -3.93726,-19.05443 -3.13741,-31.42541 l 0.83578,-12.92842 c -58.27736,24.61869 -76.69159,15.21573 -119.63835,0.10683 z"
       id="path4201"
       /><path
       d="m 442.69347,363.24593 -84.46907,21.92378 -3.6865,-6.84796 95.72487,-24.84522 c 0,0 -6.00168,-16.78845 -6.61715,-39.55957 -0.74717,-27.64345 4.58963,-32.0088 4.58963,-32.0088 l -130.40254,17.66368 c -12.86409,-18.81318 -30.54642,-18.37026 -40.59776,-11.92256 13.50553,-1.43975 34.60971,21.57144 48.00215,48.56397 6.20951,12.51529 19.26655,37.75372 19.97613,52.63349 -16.92793,7.49419 -15.23316,32.04365 2.55871,37.14545 17.79187,5.10178 32.23845,-14.81915 21.85418,-30.14509 l 58.36076,-15.14744 c -1.61317,19.18264 22.37006,29.09122 34.77021,14.37478 12.40018,-14.71644 -1.43249,-36.67169 -20.06362,-31.82851 z M 323.4924,312.12332 435.45441,296.95766 c 0,0 -1.89864,-2.6206 -2.19418,17.35018 -0.3657,24.71027 3.50835,29.03451 3.50835,29.03451 l -85.74981,21.61396 c 0,0 -6.70261,-18.81653 -18.37215,-42.4847 -17.14402,-34.77153 -9.15422,-10.34829 -9.15422,-10.34829 z"
       id="path720"
       style="fill:#ffffff;stroke-width:0.601472" /></g></svg>
