<?xml version="1.0" encoding="UTF-8" standalone="no"?>
<svg
   width="36"
   height="36"
   viewBox="0 0 36 36"
   fill="none"
   version="1.1"
   id="svg10"
   sodipodi:docname="MarkLeft.svg"
   inkscape:version="1.2.2 (b0a8486541, 2022-12-01)"
   xmlns:inkscape="http://www.inkscape.org/namespaces/inkscape"
   xmlns:sodipodi="http://sodipodi.sourceforge.net/DTD/sodipodi-0.dtd"
   xmlns="http://www.w3.org/2000/svg"
   xmlns:svg="http://www.w3.org/2000/svg">
  <defs
     id="defs14" />
  <sodipodi:namedview
     id="namedview12"
     pagecolor="#ffffff"
     bordercolor="#000000"
     borderopacity="0.25"
     inkscape:showpageshadow="2"
     inkscape:pageopacity="0.0"
     inkscape:pagecheckerboard="0"
     inkscape:deskcolor="#d1d1d1"
     showgrid="false"
     inkscape:zoom="6.5555556"
     inkscape:cx="5.4915254"
     inkscape:cy="-5.9491525"
     inkscape:window-width="1920"
     inkscape:window-height="1131"
     inkscape:window-x="0"
     inkscape:window-y="0"
     inkscape:window-maximized="1"
     inkscape:current-layer="svg10" />
  <g
     id="g1220"
     transform="matrix(-0.99998205,0,0,-0.99998205,35.999569,35.999699)">
    <path
       d="m 6.29995,25.2 h 1.8 l 1.8,1.35 -3.6,4.05 z"
       fill="#d9d9d9"
       id="path2" />
    <path
       d="M 6.29995,10.8 V 5.39999 l 3.6,4.05 -1.8,1.35001 z"
       fill="#d9d9d9"
       id="path4" />
    <path
       d="m 6.29995,30.6 v -5.4 h 1.8 l 1.8,1.35 m -3.6,4.05 V 10.8 m 0,19.8 3.6,-4.05 m -3.6,-15.75 V 5.39999 l 3.6,4.05 m -3.6,1.35001 h 1.8 l 1.8,-1.35001 m 0,0 L 15.3,5.39999 29.7,18 15.3,30.6 9.89995,26.55"
       stroke="#d9d9d9"
       stroke-width="2.25"
       stroke-linecap="round"
       stroke-linejoin="round"
       id="path6" />
    <path
       d="m 20.7,18 -5.4,-3.6 v 7.2 z"
       fill="#d9d9d9"
       stroke="#d9d9d9"
       stroke-width="2.25"
       stroke-linecap="round"
       stroke-linejoin="round"
       id="path8" />
  </g>
</svg>
